<?xml version="1.0" encoding="utf-8"?>
<!-- Generator: Adobe Illustrator 23.0.3, SVG Export Plug-In . SVG Version: 6.00 Build 0)  -->
<svg version="1.1" id="Layer_1" xmlns="http://www.w3.org/2000/svg" xmlns:xlink="http://www.w3.org/1999/xlink" x="0px" y="0px"
	 viewBox="0 0 20 20" style="enable-background:new 0 0 20 20;" xml:space="preserve">
<path d="M10.5,11c0,2.2,0,4.3,0,6.4c0,0.2,0,0.5,0,0.7c0,0.4,0.1,0.9-0.6,0.9c-0.6,0-0.5-0.5-0.5-0.8c0-2,0-4.1,0-6.1
	c0-0.3,0-0.6,0-0.9c-0.4-0.1-0.7,0.2-0.9,0.3c-1.8,1-3.6,2.1-5.4,3.1c-0.4,0.2-0.7,0.4-1-0.1c-0.3-0.5,0.1-0.7,0.4-0.8
	c2-1.2,4.1-2.4,6.3-3.6C8.2,9.6,7.6,9.3,7.1,9c-1.5-0.9-3-1.7-4.5-2.6C2.3,6.2,1.9,6,2.2,5.5c0.3-0.5,0.6-0.3,1-0.1
	c2,1.2,4.1,2.4,6.3,3.6c0-1.1,0-2.2,0-3.2c0-1.3,0-2.6,0-4C9.5,1.5,9.3,1,10,1c0.7,0,0.6,0.5,0.6,0.9c0,2,0,4.1,0,6.1
	c0,0.3,0,0.6,0,1c1.7-1,3.2-1.9,4.8-2.8c0.5-0.3,1-0.6,1.6-0.9c0.3-0.2,0.6-0.3,0.9,0.1c0.3,0.5,0,0.7-0.3,0.9
	c-1.8,1.1-3.6,2.1-5.5,3.1c-0.2,0.1-0.6,0.2-0.7,0.6c1.5,0.8,2.9,1.7,4.3,2.5c0.6,0.3,1.2,0.7,1.8,1c0.3,0.2,0.7,0.4,0.4,0.9
	c-0.3,0.5-0.6,0.3-1,0.1c-1.8-1-3.6-2.1-5.4-3.1C11.2,11.3,10.9,11.2,10.5,11z"/>
</svg>
