<svg width="59" height="52" viewBox="0 0 59 52" xmlns="http://www.w3.org/2000/svg"><g transform="translate(0 -4)" fill="none" fill-rule="evenodd"><path d="M45.626 20.441C53.188 22.541 58.14 26.04 58.14 30c0 3.961-4.952 7.46-12.514 9.559-.773-2.995-1.938-6.232-3.47-9.559 1.532-3.327 2.697-6.564 3.47-9.559zM12.513 39.56C4.951 37.459 0 33.96 0 30c0-3.961 4.951-7.46 12.513-9.559.774 2.995 1.938 6.232 3.471 9.559-1.533 3.327-2.697 6.564-3.47 9.559z" fill="#E6A734"/><path d="M45.626 39.559c1.963 7.599 1.409 13.636-2.021 15.616-3.43 1.98-8.936-.558-14.535-6.057 2.206-2.167 4.428-4.794 6.542-7.786 3.648-.335 7.034-.946 10.014-1.773zM12.513 20.44c-1.962-7.599-1.408-13.636 2.022-15.616 3.43-1.98 8.936.558 14.535 6.057-2.207 2.167-4.428 4.794-6.543 7.786-3.648.335-7.034.946-10.014 1.773z" fill="#45B892"/><path d="M29.07 10.882c5.599-5.499 11.104-8.038 14.535-6.057 3.43 1.98 3.984 8.017 2.021 15.616-2.98-.827-6.366-1.438-10.014-1.773-2.114-2.992-4.336-5.619-6.542-7.786zm0 38.236c-5.6 5.499-11.105 8.038-14.535 6.057-3.43-1.98-3.984-8.017-2.022-15.616 2.98.827 6.366 1.438 10.014 1.773 2.115 2.992 4.336 5.619 6.543 7.786z" fill="#DD1D64"/><path d="M45.626 20.441c-2.98-.827-6.366-1.438-10.014-1.773a71.545 71.545 0 0 1 3.528 5.518A71.545 71.545 0 0 1 42.155 30c1.533-3.327 2.698-6.564 3.471-9.559zM12.513 39.56c2.98.827 6.366 1.438 10.014 1.773A71.545 71.545 0 0 1 19 35.814 71.545 71.545 0 0 1 15.984 30c-1.533 3.327-2.697 6.564-3.47 9.559z" fill="#c7120d"/><path d="M29.07 10.882c-2.207 2.167-4.428 4.794-6.543 7.786a71.545 71.545 0 0 1 6.543-.296c2.25 0 4.44.102 6.542.296-2.114-2.992-4.336-5.619-6.542-7.786zm0 38.236c2.206-2.167 4.428-4.794 6.542-7.786a71.545 71.545 0 0 1-6.542.296c-2.25 0-4.44-.102-6.543-.296 2.115 2.992 4.336 5.619 6.543 7.786z" fill="#41193b"/><path d="M45.626 39.559c-.773-2.995-1.938-6.232-3.47-9.559a71.545 71.545 0 0 1-3.016 5.814 71.545 71.545 0 0 1-3.528 5.518c3.648-.335 7.034-.946 10.014-1.773zM12.513 20.44c.774 2.995 1.938 6.232 3.471 9.559A71.545 71.545 0 0 1 19 24.186a71.545 71.545 0 0 1 3.527-5.518c-3.648.335-7.034.946-10.014 1.773z" fill="#40781f"/><circle fill="#02D8FF" cx="29.07" cy="30" r="5.814"/></g></svg>