<?xml version="1.0" encoding="utf-8"?>
<!-- Generator: Adobe Illustrator 23.0.3, SVG Export Plug-In . SVG Version: 6.00 Build 0)  -->
<svg version="1.1" id="Layer_1" xmlns="http://www.w3.org/2000/svg" xmlns:xlink="http://www.w3.org/1999/xlink" x="0px" y="0px"
	 viewBox="0 0 109.1 47.6" style="enable-background:new 0 0 109.1 47.6;" xml:space="preserve">
<style type="text/css">
	.st0{fill:#FFFFFF;}
</style>
<g>
	<path class="st0" d="M66.8,3.6c-3.9,0-6.9,1.8-9.1,5c-0.1,0.1-0.3,0.1-0.3-0.1C56.8,5.9,54.5,4,51.8,4h-4c-0.1,0-0.2,0.1-0.2,0.2
		v34.4c0,2.2,1.3,4.2,3.3,5h-5.7c-0.1,0-0.2,0.1-0.2,0.2v0.1c0,0.1,0.1,0.2,0.2,0.2H58c0.1,0,0.2-0.1,0.2-0.2v-0.1
		c0-0.1-0.1-0.2-0.2-0.2h-0.5v-11c0-0.2,0.2-0.2,0.3-0.2c1.6,1.2,3.6,1.7,6.1,1.7c11.3,0,14.3-9,13.8-17.4
		C77.1,7.6,71.7,3.6,66.8,3.6z M68.6,28.6c-0.5,2.5-2.3,4.7-6.2,4.7c-3.4,0-4.6-1.7-4.8-2.2c0,0,0-0.1,0-0.1V9.7c0,0,0-0.1,0-0.1
		c0.3-0.5,2.5-3.5,4.8-4.3c3.4-1.1,5.7,1.8,6.3,5.9C69.1,15,69.5,24.6,68.6,28.6z"/>
	<path class="st0" d="M46.2,4.3h-0.1c-0.1,0-0.1,0-0.2,0.1l-6.6,15.8L33.2,4.3c0-0.1-0.1-0.1-0.2-0.1L22,4.2c-0.1,0-0.2,0.1-0.2,0.3
		l3.1,8.1l-3.2,7.6L15.6,4.3c0-0.1-0.1-0.1-0.2-0.1l-11.1,0c-0.1,0-0.2,0.1-0.2,0.3l9.5,24.9c0.7,1.7,2.5,2.2,3.8,1.3l-1.5,3.6
		c0,0.1,0,0.2,0,0.2l0.1,0.1c0.1,0.1,0.3,0.1,0.3-0.1l8.8-21.2l6.1,16.1c0.7,1.7,2.5,2.2,3.8,1.3l-1.5,3.6c0,0.1,0,0.2,0,0.2
		l0.1,0.1c0.1,0.1,0.3,0.1,0.3-0.1L46.4,4.5C46.4,4.4,46.4,4.3,46.2,4.3z"/>
	<path class="st0" d="M87,7.9c0-2.1,2-3.9,5-3.9c3.7,0,9.4,2.6,10.1,9.3c0,0.1,0.1,0.2,0.2,0.2l0.2,0c0.1,0,0.2-0.1,0.2-0.2l0-8.8
		c0-0.1-0.1-0.2-0.2-0.2h-0.1c-0.1,0-0.2,0.1-0.2,0.2v2.9c0,0.2-0.2,0.2-0.3,0.2l-0.5-0.4c-3.1-2.4-6.8-3.5-9.1-3.5
		c-5.4,0-12.6,2.5-12.6,9.4c0,11.1,18.3,10.4,18.3,16.5c0,2.2-2.4,3.9-5.7,3.9c-3.6,0-11-2.1-12.3-11.4c0-0.1-0.1-0.2-0.2-0.2
		c-0.1,0-0.2,0.1-0.2,0.2l0.1,6.3v5.3c0,0.1,0.1,0.2,0.2,0.2H80c0.1,0,0.2-0.1,0.2-0.2v-3.9c0-0.2,0.2-0.2,0.3-0.1
		c3.5,3,8.7,4.4,11.8,4.4c7.2-0.1,12.7-4.1,12.7-10.2C104.9,12.7,87,14.3,87,7.9z"/>
</g>
</svg>
