<?xml version="1.0" encoding="utf-8"?>
<!-- Generator: Adobe Illustrator 23.0.4, SVG Export Plug-In . SVG Version: 6.00 Build 0)  -->
<svg version="1.1" id="Layer_1" xmlns="http://www.w3.org/2000/svg" xmlns:xlink="http://www.w3.org/1999/xlink" x="0px" y="0px"
	 viewBox="0 0 634 100.7" style="enable-background:new 0 0 634 100.7;" xml:space="preserve">
<style type="text/css">
	.st0{fill:none;stroke:#333333;stroke-miterlimit:10;}
	.st1{fill:#141414;}
	.st2{font-family:'IBMPlexSans-Bold';}
	.st3{font-size:53.8063px;}
	.st4{fill:#415AFF;}
	.st5{fill:#FFFFFF;}
</style>
<line class="st0" x1="423" y1="13" x2="423" y2="82"/>
<g>
	<text transform="matrix(1 0 0 1 455 64)" class="st1 st2 st3">demo</text>
</g>
<circle class="st4" cx="50.5" cy="50.3" r="47"/>
<g>
	<path class="st5" d="M55.1,33.5c-4.2,5.9-13.6,20.8-13.6,20.8l-10-19.9c-2.4-4.7-7.1-7.6-12.3-7.6h-13c-0.4,0-0.7,0.4-0.5,0.8
		l18.8,38.5c2.3,5.1,9.4,5.5,12.3,0.8c7.1-11.4,17.4-27.6,18.3-29C55.1,37.9,55.1,33.5,55.1,33.5z"/>
	<path class="st5" d="M28.3,78.9l-1-0.6c-0.3-0.2-0.4-0.7-0.2-1L53.2,36l2.4,1.5L29.3,78.7C29.1,79,28.6,79.1,28.3,78.9z"/>
	<path class="st5" d="M65.7,79.2L65.7,79.2c-0.6-0.4-0.8-1.3-0.4-1.9l25-40.1l2.4,1.5l-25,40.1C67.2,79.4,66.4,79.6,65.7,79.2z"/>
	<path class="st5" d="M96.8,29.5L96.8,29.5c0.6,0.4,0.8,1.3,0.4,1.9L72.1,71.3l-2.4-1.5l25.1-39.9C95.4,29.3,96.2,29.1,96.8,29.5z"
		/>
	<path class="st5" d="M91.6,36.8V35c-4.8,7-11.9,19.3-11.9,19.3l-8.6-19.4c-2.2-5-7.1-8.2-12.6-8.2h-13c-0.4,0-0.7,0.4-0.5,0.8
		L62.6,66c2.3,5.1,9.4,5.5,12.3,0.8C82,55.4,91.5,40,92.5,38.8c0.4-0.6,0.8-1.3,1.3-1.9H91.6L91.6,36.8z"/>
</g>
<text transform="matrix(1 0 0 1 122.8249 63.4108)" class="st1 st2 st3">wpshopify</text>
</svg>
