<?xml version="1.0" encoding="utf-8"?>
<!-- Generator: Adobe Illustrator 23.0.3, SVG Export Plug-In . SVG Version: 6.00 Build 0)  -->
<svg version="1.1" id="Layer_1" xmlns="http://www.w3.org/2000/svg" xmlns:xlink="http://www.w3.org/1999/xlink" x="0px" y="0px"
	 viewBox="0 0 100 100" style="enable-background:new 0 0 100 100;" xml:space="preserve">
<style type="text/css">
	.st0{fill:#FFFFFF;}
</style>
<path class="st0" d="M90.1,24.1h-0.2c-0.1,0-0.3,0.1-0.3,0.2L77,54.6L65.3,24.2C65.2,24,65.1,24,64.9,24l-21.2,0
	c-0.3,0-0.4,0.3-0.3,0.5L49.3,40l-6.1,14.6L31.5,24.2C31.4,24,31.3,24,31.1,24L9.9,24c-0.3,0-0.4,0.3-0.3,0.5l18.2,47.6
	c1.3,3.3,4.8,4.2,7.2,2.5L32,81.4c-0.1,0.1,0,0.3,0.1,0.4l0.2,0.1c0.2,0.2,0.5,0.1,0.6-0.1l16.9-40.6l11.8,30.8
	c1.3,3.3,4.8,4.2,7.2,2.5l-2.8,6.8c-0.1,0.1,0,0.3,0.1,0.4l0.2,0.1c0.2,0.2,0.5,0.1,0.6-0.1l23.8-57.2
	C90.6,24.4,90.4,24.1,90.1,24.1z"/>
</svg>
