<?xml version="1.0" encoding="utf-8"?>
<!-- Generator: Adobe Illustrator 23.0.3, SVG Export Plug-In . SVG Version: 6.00 Build 0)  -->
<svg version="1.1" id="Layer_1" xmlns="http://www.w3.org/2000/svg" xmlns:xlink="http://www.w3.org/1999/xlink" x="0px" y="0px"
	 viewBox="0 0 100 100" style="enable-background:new 0 0 100 100;" xml:space="preserve">
<style type="text/css">
	.st0{fill:#FFFFFF;}
</style>
<path class="st0" d="M45.2,50.6c1.3-0.4,2-1.8,1.5-3.1c-1.7-5,1-10.5,6-12.2s10.5,1,12.2,6c0.8,2.5,0.6,5.1-0.7,7.1
	c-1.2,1.9-3.1,3.1-5.3,3.4c-1.3,0.2-2.3,1.4-2.1,2.7c0.2,1.3,1.4,2.3,2.7,2.1c0.8-0.1,1.7-0.3,2.4-0.6c2.7-0.9,4.9-2.6,6.4-5.1
	c2-3.3,2.4-7.4,1.1-11.3c-2.6-7.6-10.8-11.6-18.4-9.1s-11.6,10.8-9.1,18.4C42.5,50.4,43.9,51.1,45.2,50.6z"/>
<path class="st0" d="M87.9,25.9c-1.9-3.1-5.5-4.7-9.4-4.4c-4,0.4-7.6,3.3-8.9,7.2c-1.4,4.3,0.1,8.9,4.2,12.7
	c4.1,3.8,7.5,7.4,6.6,12.4c-0.6,3.5-3.2,6.3-7.1,7.7c-4.5,1.6-9.5,0.9-12.7-1.8c-1-0.9-2.6-0.8-3.4,0.3c-0.9,1-0.8,2.6,0.3,3.4
	c4.4,3.8,11.2,4.9,17.2,2.8c0.1,0,0.2-0.1,0.3-0.1c2.6-0.9,4.9-2.4,6.6-4.2c1.9-2,3.2-4.5,3.7-7.2c0.6-3.5,0-6.7-2-9.9
	c-1.6-2.7-4-5-6.1-6.9c-2.7-2.5-3.7-5.2-2.9-7.6c0.7-2.1,2.7-3.7,4.8-3.9c2.1-0.2,3.9,0.6,4.8,2c0.8,1.4,0.7,3-0.3,4.6
	c-0.7,1.1-0.4,2.6,0.7,3.4c1.1,0.7,2.6,0.4,3.4-0.7C89.6,32.5,89.8,28.9,87.9,25.9z"/>
<path class="st0" d="M53.9,40.9c-1.3-0.2-2.5,0.8-2.7,2.1c0,0.1-1.3,11.5-2.3,17.9c-0.6,4.3-2,9.2-6.7,9.8c-2.7,0.3-4.5-0.8-4.8-3.2
	c0-0.1-0.1-0.3-0.1-0.4c1-6.6,1.7-14.3,1.7-14.7c0.1-1.3-0.9-2.5-2.2-2.6c-1.3-0.1-2.5,0.9-2.6,2.2c0,0.1-1,11.5-2.3,18.1
	c-0.4,2.3-1.4,3.8-2.8,4.6c-1,0.6-2,0.6-2.1,0.6c-0.1,0-0.1,0-0.1,0c-1.2,0-2.1-0.4-2.8-1.3c-1-1.4-2.6-5.3-0.9-16
	c1-6.4,2.7-12,2.7-12.1c0.3-1.1-0.2-2.4-1.3-2.9c-2-1.2-3.9-1.2-5.2-0.9l0,0c-0.1,0-0.2,0.1-0.3,0.1c-0.8,0.2-1.3,0.5-1.3,0.5l0,0
	c-5.9,2.6-9.5,9-8.4,15.7c0.2,1.3,1.5,2.2,2.8,2c1.3-0.2,2.2-1.5,2-2.8c-0.6-3.5,0.7-6.8,3.2-9c1.5-1.2,2.5-1.6,3.2-1.7
	c-0.3,0.7-0.5,1.5-0.6,2.2c0,0.2-0.1,0.5-0.1,0.7c-0.2,1-1.1,4.9-1.5,7.3c-0.6,4-0.9,7.5-0.8,10.5c0.2,4.1,1,7.1,2.6,9.2
	c1.6,2.1,3.9,3.2,6.7,3.2c0.4,0,1.6,0,3-0.5c0.4-0.1,0.9-0.3,1.3-0.5c1.6-0.8,3.5-2.3,4.7-5.3c0,0,0,0,0,0c1.9,1.4,4.3,2,7,1.7
	c0.8-0.1,1.6-0.3,2.4-0.5c2.2-0.8,4-2.2,5.5-4.2c1.5-2.2,2.6-5.2,3.1-9.1c1-6.5,2.3-18,2.3-18.1C56.2,42.3,55.2,41.1,53.9,40.9z"/>
</svg>
